<svg width="126" height="90" viewBox="0 0 135 96" fill="none" xmlns="http://www.w3.org/2000/svg">
<path d="M12.88 29.6C9.14667 29.6 6.16 28.7733 3.92 27.12C1.68 25.44 0.373333 23.08 0 20.04H5.92C6.10667 21.5867 6.85333 22.8133 8.16 23.72C9.46667 24.6 11.1333 25.04 13.16 25.04C14.8133 25.04 16.08 24.7467 16.96 24.16C17.8667 23.5733 18.32 22.7867 18.32 21.8C18.32 20.8667 18.0533 20.12 17.52 19.56C16.9867 18.9733 16.0667 18.5067 14.76 18.16L9.4 16.68C6.65333 15.9067 4.64 14.8533 3.36 13.52C2.10667 12.16 1.48 10.4667 1.48 8.44C1.48 6.70667 1.92 5.21333 2.8 3.96C3.70667 2.68 4.97333 1.70667 6.6 1.04C8.22667 0.346666 10.1333 0 12.32 0C15.68 0 18.36 0.8 20.36 2.4C22.36 3.97333 23.4933 6.06667 23.76 8.68H17.84C17.5733 7.26667 16.92 6.22667 15.88 5.56C14.8667 4.89333 13.56 4.56 11.96 4.56C10.5733 4.56 9.46667 4.82667 8.64 5.36C7.81333 5.89333 7.4 6.61333 7.4 7.52C7.4 8.21333 7.62667 8.85333 8.08 9.44C8.53333 10 9.48 10.48 10.92 10.88L16.28 12.36C19.1067 13.1333 21.1333 14.2 22.36 15.56C23.6133 16.8933 24.24 18.5867 24.24 20.64C24.24 23.52 23.24 25.7333 21.24 27.28C19.24 28.8267 16.4533 29.6 12.88 29.6Z" fill="white"/>
<path d="M36.7356 29.64C34.4956 29.64 32.5223 29.2 30.8156 28.32C29.1356 27.4133 27.8156 26.16 26.8556 24.56C25.9223 22.9333 25.4556 21.0667 25.4556 18.96C25.4556 16.8533 25.9223 15.0133 26.8556 13.44C27.8156 11.8667 29.1356 10.64 30.8156 9.76C32.5223 8.88 34.4956 8.44 36.7356 8.44C39.0023 8.44 40.9756 8.88 42.6556 9.76C44.3623 10.64 45.6823 11.8667 46.6156 13.44C47.549 15.0133 48.0156 16.8533 48.0156 18.96C48.0156 21.0667 47.5356 22.9333 46.5756 24.56C45.6423 26.16 44.3223 27.4133 42.6156 28.32C40.9356 29.2 38.9756 29.64 36.7356 29.64ZM36.7356 24.92C37.669 24.92 38.509 24.68 39.2556 24.2C40.029 23.72 40.6423 23.04 41.0956 22.16C41.549 21.2533 41.7756 20.1733 41.7756 18.92C41.7756 17.08 41.2823 15.6667 40.2956 14.68C39.3356 13.6667 38.149 13.16 36.7356 13.16C35.3223 13.16 34.1223 13.6667 33.1356 14.68C32.1756 15.6933 31.6956 17.1067 31.6956 18.92C31.6956 20.1733 31.9223 21.2533 32.3756 22.16C32.829 23.04 33.429 23.72 34.1756 24.2C34.949 24.68 35.8023 24.92 36.7356 24.92Z" fill="white"/>
<path d="M51.9656 29.24V7.48C51.9656 5.02667 52.6323 3.17333 53.9656 1.92C55.299 0.666666 57.2723 0.0399995 59.8856 0.0399995C60.4456 0.0399995 60.9256 0.0666658 61.3256 0.119998C61.7523 0.173333 62.1656 0.266666 62.5656 0.4V5C62.379 4.92 62.1523 4.86667 61.8856 4.84C61.619 4.78667 61.299 4.76 60.9256 4.76C59.9123 4.76 59.1656 5 58.6856 5.48C58.2056 5.96 57.9656 6.65333 57.9656 7.56V29.24H51.9656ZM48.5656 13.4V8.84H62.1256V13.4H48.5656Z" fill="white"/>
<path d="M74.92 29.68C72.3067 29.68 70.36 29.0533 69.08 27.8C67.8267 26.52 67.2 24.5867 67.2 22V4.28L73.2 2.04V22.2C73.2 23.1067 73.4533 23.7867 73.96 24.24C74.4667 24.6933 75.2533 24.92 76.32 24.92C76.72 24.92 77.0933 24.88 77.44 24.8C77.7867 24.72 78.1333 24.6267 78.48 24.52V29.08C78.1333 29.2667 77.64 29.4133 77 29.52C76.3867 29.6267 75.6933 29.68 74.92 29.68ZM63.4 13.4V8.84H78.48V13.4H63.4Z" fill="white"/>
<path d="M14.68 62.64C12.6 62.64 10.68 62.28 8.92 61.56C7.16 60.8133 5.62667 59.7733 4.32 58.44C3.04 57.1067 2.04 55.5333 1.32 53.72C0.6 51.88 0.24 49.88 0.24 47.72C0.24 45.56 0.586667 43.5867 1.28 41.8C2 40.0133 3 38.4667 4.28 37.16C5.58667 35.8267 7.12 34.8133 8.88 34.12C10.64 33.4 12.5733 33.04 14.68 33.04C17.0533 33.04 19.1867 33.5067 21.08 34.44C23 35.3467 24.56 36.64 25.76 38.32C26.9867 39.9733 27.7333 41.92 28 44.16H22C21.6533 42.1067 20.8133 40.56 19.48 39.52C18.1467 38.4533 16.56 37.92 14.72 37.92C13.0933 37.92 11.6533 38.3067 10.4 39.08C9.17333 39.8533 8.21333 40.9733 7.52 42.44C6.82667 43.88 6.48 45.6267 6.48 47.68C6.48 49.76 6.82667 51.56 7.52 53.08C8.24 54.5733 9.22667 55.7333 10.48 56.56C11.7333 57.36 13.1733 57.76 14.8 57.76C16.5333 57.76 18.0667 57.24 19.4 56.2C20.7333 55.16 21.6 53.6133 22 51.56H28.08C27.7333 53.8 26.9467 55.76 25.72 57.44C24.4933 59.0933 22.9333 60.3733 21.04 61.28C19.1467 62.1867 17.0267 62.64 14.68 62.64Z" fill="white"/>
<path d="M40.6419 62.64C38.4019 62.64 36.4285 62.2 34.7219 61.32C33.0419 60.4133 31.7219 59.16 30.7619 57.56C29.8285 55.9333 29.3619 54.0667 29.3619 51.96C29.3619 49.8533 29.8285 48.0133 30.7619 46.44C31.7219 44.8667 33.0419 43.64 34.7219 42.76C36.4285 41.88 38.4019 41.44 40.6419 41.44C42.9085 41.44 44.8819 41.88 46.5619 42.76C48.2685 43.64 49.5885 44.8667 50.5219 46.44C51.4552 48.0133 51.9219 49.8533 51.9219 51.96C51.9219 54.0667 51.4419 55.9333 50.4819 57.56C49.5485 59.16 48.2285 60.4133 46.5219 61.32C44.8419 62.2 42.8819 62.64 40.6419 62.64ZM40.6419 57.92C41.5752 57.92 42.4152 57.68 43.1619 57.2C43.9352 56.72 44.5485 56.04 45.0019 55.16C45.4552 54.2533 45.6819 53.1733 45.6819 51.92C45.6819 50.08 45.1885 48.6667 44.2019 47.68C43.2419 46.6667 42.0552 46.16 40.6419 46.16C39.2285 46.16 38.0285 46.6667 37.0419 47.68C36.0819 48.6933 35.6019 50.1067 35.6019 51.92C35.6019 53.1733 35.8285 54.2533 36.2819 55.16C36.7352 56.04 37.3352 56.72 38.0819 57.2C38.8552 57.68 39.7085 57.92 40.6419 57.92Z" fill="white"/>
<path d="M69.5331 62.24V57.72L69.9331 57.8C69.6665 59.2667 68.8665 60.44 67.5331 61.32C66.2265 62.2 64.6531 62.64 62.8131 62.64C60.9465 62.64 59.3198 62.2133 57.9331 61.36C56.5731 60.48 55.5198 59.2533 54.7731 57.68C54.0265 56.1067 53.6531 54.2533 53.6531 52.12C53.6531 49.96 54.0398 48.08 54.8131 46.48C55.5865 44.88 56.6665 43.64 58.0531 42.76C59.4665 41.88 61.1065 41.44 62.9731 41.44C64.9198 41.44 66.4931 41.8933 67.6931 42.8C68.9198 43.7067 69.6398 44.9467 69.8531 46.52L69.4131 46.56V33.44H75.4131V62.24H69.5331ZM64.7331 57.84C66.1465 57.84 67.2931 57.3467 68.1731 56.36C69.0531 55.3467 69.4931 53.9067 69.4931 52.04C69.4931 50.1733 69.0398 48.7467 68.1331 47.76C67.2531 46.7467 66.0931 46.24 64.6531 46.24C63.2665 46.24 62.1198 46.7467 61.2131 47.76C60.3331 48.7733 59.8931 50.2133 59.8931 52.08C59.8931 53.9467 60.3331 55.3733 61.2131 56.36C62.1198 57.3467 63.2931 57.84 64.7331 57.84Z" fill="white"/>
<path d="M79.8103 62.24V41.84H85.8103V62.24H79.8103ZM79.6103 39.12V32.64H86.0103V39.12H79.6103Z" fill="white"/>
<path d="M90.1916 62.24V41.84H96.0716V46.64H96.1916V62.24H90.1916ZM104.392 62.24V49.6C104.392 48.48 104.098 47.64 103.512 47.08C102.952 46.52 102.125 46.24 101.032 46.24C100.098 46.24 99.2582 46.4533 98.5116 46.88C97.7916 47.3067 97.2182 47.8933 96.7916 48.64C96.3916 49.3867 96.1916 50.2667 96.1916 51.28L95.6716 46.36C96.3382 44.8667 97.3116 43.68 98.5916 42.8C99.8982 41.8933 101.498 41.44 103.392 41.44C105.658 41.44 107.392 42.08 108.592 43.36C109.792 44.6133 110.392 46.3067 110.392 48.44V62.24H104.392Z" fill="white"/>
<path d="M123.879 70.84C121.052 70.84 118.746 70.24 116.959 69.04C115.199 67.84 114.159 66.2133 113.839 64.16H119.519C119.732 64.6667 120.186 65.0533 120.879 65.32C121.599 65.5867 122.506 65.72 123.599 65.72C125.412 65.72 126.732 65.3733 127.559 64.68C128.386 63.9867 128.799 62.9067 128.799 61.44V57L129.119 57.08C128.852 58.5733 128.079 59.76 126.799 60.64C125.519 61.4933 123.932 61.92 122.039 61.92C120.226 61.92 118.639 61.5067 117.279 60.68C115.946 59.8267 114.906 58.64 114.159 57.12C113.412 55.6 113.039 53.8133 113.039 51.76C113.039 49.68 113.426 47.8667 114.199 46.32C114.972 44.7733 116.052 43.5733 117.439 42.72C118.852 41.8667 120.492 41.44 122.359 41.44C124.279 41.44 125.839 41.8933 127.039 42.8C128.266 43.7067 128.986 44.9467 129.199 46.52L128.919 46.56V41.84H134.799V61.36C134.799 64.2933 133.826 66.6 131.879 68.28C129.932 69.9867 127.266 70.84 123.879 70.84ZM124.119 57.32C125.532 57.32 126.679 56.84 127.559 55.88C128.439 54.8933 128.879 53.4933 128.879 51.68C128.879 49.8667 128.426 48.48 127.519 47.52C126.639 46.5333 125.479 46.04 124.039 46.04C122.652 46.04 121.506 46.5333 120.599 47.52C119.719 48.5067 119.279 49.9067 119.279 51.72C119.279 53.5333 119.719 54.92 120.599 55.88C121.506 56.84 122.679 57.32 124.119 57.32Z" fill="white"/>
<path d="M14.68 95.64C12.6 95.64 10.68 95.28 8.92 94.56C7.16 93.8133 5.62667 92.7733 4.32 91.44C3.04 90.1067 2.04 88.5333 1.32 86.72C0.6 84.88 0.24 82.88 0.24 80.72C0.24 78.56 0.586667 76.5867 1.28 74.8C2 73.0133 3 71.4667 4.28 70.16C5.58667 68.8267 7.12 67.8133 8.88 67.12C10.64 66.4 12.5733 66.04 14.68 66.04C17.0533 66.04 19.1867 66.5067 21.08 67.44C23 68.3467 24.56 69.64 25.76 71.32C26.9867 72.9733 27.7333 74.92 28 77.16H22C21.6533 75.1067 20.8133 73.56 19.48 72.52C18.1467 71.4533 16.56 70.92 14.72 70.92C13.0933 70.92 11.6533 71.3067 10.4 72.08C9.17333 72.8533 8.21333 73.9733 7.52 75.44C6.82667 76.88 6.48 78.6267 6.48 80.68C6.48 82.76 6.82667 84.56 7.52 86.08C8.24 87.5733 9.22667 88.7333 10.48 89.56C11.7333 90.36 13.1733 90.76 14.8 90.76C16.5333 90.76 18.0667 90.24 19.4 89.2C20.7333 88.16 21.6 86.6133 22 84.56H28.08C27.7333 86.8 26.9467 88.76 25.72 90.44C24.4933 92.0933 22.9333 93.3733 21.04 94.28C19.1467 95.1867 17.0267 95.64 14.68 95.64Z" fill="white"/>
<path d="M31.04 95.24V66.44H37.04V95.24H31.04Z" fill="white"/>
<path d="M48.0213 95.64C46.5813 95.64 45.3413 95.3333 44.3013 94.72C43.2879 94.08 42.5146 93.24 41.9813 92.2C41.4479 91.1333 41.1813 89.9467 41.1813 88.64V74.84H47.1813V87.48C47.1813 88.6 47.4613 89.44 48.0213 90C48.5813 90.56 49.3679 90.84 50.3813 90.84C51.2879 90.84 52.0879 90.6267 52.7812 90.2C53.4746 89.7733 54.0213 89.1867 54.4213 88.44C54.8479 87.6667 55.0613 86.7867 55.0613 85.8L55.5813 90.72C54.9146 92.1867 53.9413 93.3733 52.6613 94.28C51.3813 95.1867 49.8346 95.64 48.0213 95.64ZM55.1813 95.24V90.44H55.0613V74.84H61.0613V95.24H55.1813Z" fill="white"/>
<path d="M77.9144 95.64C75.9677 95.64 74.381 95.1867 73.1544 94.28C71.9544 93.3733 71.2477 92.1333 71.0344 90.56L71.3544 90.52V95.24H65.4744V66.44H71.4744V79.36L71.1144 79.28C71.4077 77.7867 72.181 76.6133 73.4344 75.76C74.7144 74.88 76.3144 74.44 78.2344 74.44C80.0744 74.44 81.661 74.88 82.9944 75.76C84.3544 76.6133 85.3944 77.8267 86.1144 79.4C86.861 80.9733 87.2344 82.8267 87.2344 84.96C87.2344 87.12 86.8477 89 86.0744 90.6C85.301 92.2 84.221 93.44 82.8344 94.32C81.4477 95.2 79.8077 95.64 77.9144 95.64ZM76.2344 90.84C77.6477 90.84 78.7944 90.3333 79.6744 89.32C80.5544 88.3067 80.9944 86.8667 80.9944 85C80.9944 83.1333 80.541 81.7067 79.6344 80.72C78.7544 79.7333 77.5944 79.24 76.1544 79.24C74.7677 79.24 73.621 79.7467 72.7144 80.76C71.8344 81.7467 71.3944 83.1733 71.3944 85.04C71.3944 86.9067 71.8344 88.3467 72.7144 89.36C73.621 90.3467 74.7944 90.84 76.2344 90.84Z" fill="white"/>
</svg>
